<svg width="72" height="73" viewBox="0 0 72 73" fill="none" xmlns="http://www.w3.org/2000/svg">
<mask id="mask0_7_1148" style="mask-type:alpha" maskUnits="userSpaceOnUse" x="0" y="0" width="72" height="73">
<rect y="0.119629" width="72" height="72" fill="#D9D9D9"/>
</mask>
<g mask="url(#mask0_7_1148)">
<path d="M12 54.1196V31.0429V32.4791V18.1196V54.1196ZM12 26.5429H60V19.9661C60 19.5041 59.8078 19.0809 59.4233 18.6964C59.0388 18.3119 58.6155 18.1196 58.1535 18.1196H13.8465C13.3845 18.1196 12.9613 18.3119 12.5768 18.6964C12.1923 19.0809 12 19.5041 12 19.9661V26.5429ZM33.8715 57.1196H13.8465C12.4655 57.1196 11.3125 56.6571 10.3875 55.7321C9.4625 54.8071 9 53.6541 9 52.2731V19.9661C9 18.5851 9.4625 17.4321 10.3875 16.5071C11.3125 15.5821 12.4655 15.1196 13.8465 15.1196H58.1535C59.5345 15.1196 60.6875 15.5821 61.6125 16.5071C62.5375 17.4321 63 18.5851 63 19.9661V33.9274C61.431 32.9849 59.7695 32.2686 58.0155 31.7786C56.2615 31.2881 54.4575 31.0429 52.6035 31.0429C50.942 31.0429 49.3132 31.2696 47.7172 31.7231C46.1212 32.1771 44.6232 32.8349 43.2233 33.6964H12V52.2731C12 52.7351 12.1923 53.1584 12.5768 53.5429C12.9613 53.9274 13.3845 54.1196 13.8465 54.1196H33.1095C33.221 54.6696 33.3308 55.1851 33.4388 55.6661C33.5463 56.1466 33.6905 56.6311 33.8715 57.1196ZM58.2173 57.8981L59.856 56.2601L54.1732 50.5774V42.3506H51.8655V51.5464L58.2173 57.8981ZM53.0363 63.9851C49.4133 63.9851 46.3413 62.7371 43.8203 60.2411C41.2993 57.7446 40.0387 54.6849 40.0387 51.0619C40.0387 47.4389 41.2993 44.3696 43.8203 41.8541C46.3413 39.3386 49.4133 38.0809 53.0363 38.0809C56.6478 38.0809 59.7018 39.3416 62.1982 41.8631C64.6942 44.3841 65.9422 47.4504 65.9422 51.0619C65.9422 54.6734 64.6942 57.7301 62.1982 60.2321C59.7018 62.7341 56.6478 63.9851 53.0363 63.9851Z" fill="#FA3435"/>
</g>
</svg>
