<svg width="72" height="73" viewBox="0 0 72 73" fill="none" xmlns="http://www.w3.org/2000/svg">
<mask id="mask0_7_1103" style="mask-type:alpha" maskUnits="userSpaceOnUse" x="0" y="0" width="72" height="73">
<rect y="0.0297852" width="72" height="72" fill="#D9D9D9"/>
</mask>
<g mask="url(#mask0_7_1103)">
<path d="M16.8465 60.0298C15.4655 60.0298 14.3125 59.5673 13.3875 58.6423C12.4625 57.7173 12 56.5643 12 55.1833V16.8763C12 15.4953 12.4625 14.3423 13.3875 13.4173C14.3125 12.4923 15.4655 12.0298 16.8465 12.0298H55.1535C56.5345 12.0298 57.6875 12.4923 58.6125 13.4173C59.5375 14.3423 60 15.4953 60 16.8763V55.1833C60 56.5643 59.5375 57.7173 58.6125 58.6423C57.6875 59.5673 56.5345 60.0298 55.1535 60.0298H16.8465ZM15 27.0238H57V16.8763C57 16.4143 56.8078 15.991 56.4232 15.6065C56.0387 15.222 55.6155 15.0298 55.1535 15.0298H16.8465C16.3845 15.0298 15.9613 15.222 15.5768 15.6065C15.1923 15.991 15 16.4143 15 16.8763V27.0238ZM15 42.0358H57V30.0238H15V42.0358ZM16.8465 57.0298H55.1535C55.6155 57.0298 56.0387 56.8375 56.4232 56.453C56.8078 56.0685 57 55.6453 57 55.1833V45.0358H15V55.1833C15 55.6453 15.1923 56.0685 15.5768 56.453C15.9613 56.8375 16.3845 57.0298 16.8465 57.0298ZM20.3077 23.441V18.5953H25.1535V23.441H20.3077ZM20.3077 38.453V33.6065H25.1535V38.453H20.3077ZM20.3077 53.4643V48.6185H25.1535V53.4643H20.3077Z" fill="#FA3435"/>
</g>
</svg>
