<svg width="72" height="73" viewBox="0 0 72 73" fill="none" xmlns="http://www.w3.org/2000/svg">
<mask id="mask0_7_1173" style="mask-type:alpha" maskUnits="userSpaceOnUse" x="0" y="0" width="72" height="73">
<rect y="0.119629" width="72" height="72" fill="#D9D9D9"/>
</mask>
<g mask="url(#mask0_7_1173)">
<path d="M46.1535 14.4272H27.4613C26.9228 14.4272 26.4805 14.6002 26.1345 14.9462C25.7885 15.2927 25.6155 15.735 25.6155 16.273V36.1772H46.1535V14.4272ZM58.1535 14.4272H49.1535V36.1772H58.1535C58.692 36.1772 59.1345 36.0137 59.481 35.6867C59.827 35.3597 60 34.927 60 34.3885V16.273C60 15.735 59.827 15.2927 59.481 14.9462C59.1345 14.6002 58.692 14.4272 58.1535 14.4272ZM46.4137 39.1772H23.3077V57.1195H40.65C41.7 57.1195 42.7125 56.9445 43.6875 56.5945C44.6625 56.2445 45.55 55.7195 46.35 55.0195L58.8 44.7445C58.246 44.152 57.6325 43.7077 56.9595 43.4117C56.2865 43.1157 55.5788 42.9177 54.8363 42.8177C54.0247 42.7447 53.2287 42.8177 52.4482 43.0367C51.6673 43.2562 50.9268 43.641 50.2268 44.191L44.8965 48.466H31.6155V45.466H43.8345L47.6535 42.3617C47.942 42.1347 48.1393 41.8577 48.2453 41.5307C48.3508 41.2042 48.346 40.8525 48.231 40.4755C48.1155 40.0525 47.8895 39.7302 47.553 39.5087C47.2165 39.2877 46.8368 39.1772 46.4137 39.1772ZM20.3077 39.1195H13.8465C13.308 39.1195 12.8655 39.2925 12.519 39.6385C12.173 39.985 12 40.4275 12 40.966V58.273C12 58.8115 12.173 59.254 12.519 59.6005C12.8655 59.9465 13.308 60.1195 13.8465 60.1195H18.4613C18.9998 60.1195 19.4423 59.9465 19.7888 59.6005C20.1348 59.254 20.3077 58.8115 20.3077 58.273V39.1195ZM22.6155 39.1772V16.273C22.6155 14.8925 23.078 13.7397 24.003 12.8147C24.928 11.8897 26.0807 11.4272 27.4613 11.4272H58.1535C59.5345 11.4272 60.6875 11.8897 61.6125 12.8147C62.5375 13.7397 63 14.8925 63 16.273V34.3307C63 35.7117 62.5375 36.8647 61.6125 37.7897C60.6875 38.7147 59.5345 39.1772 58.1535 39.1772H22.6155ZM18.4613 63.1772H13.8465C12.4655 63.1772 11.3125 62.7147 10.3875 61.7897C9.4625 60.8647 9 59.7117 9 58.3307V41.023C9 39.6425 9.4625 38.4897 10.3875 37.5647C11.3125 36.6397 12.4655 36.1772 13.8465 36.1772H46.356C49.298 36.1772 52.0805 36.7772 54.7035 37.9772C57.327 39.1772 59.5887 40.906 61.4888 43.1635L63.0518 45.085L48.2887 57.4195C47.2077 58.3005 46.0058 58.9802 44.6828 59.4587C43.3598 59.9377 42.0155 60.1772 40.65 60.1772H22.944C22.5865 61.0772 22.0058 61.8022 21.2018 62.3522C20.3983 62.9022 19.4847 63.1772 18.4613 63.1772Z" fill="#FA3435"/>
</g>
</svg>
