<svg width="72" height="73" viewBox="0 0 72 73" fill="none" xmlns="http://www.w3.org/2000/svg">
<mask id="mask0_7_1141" style="mask-type:alpha" maskUnits="userSpaceOnUse" x="0" y="0" width="72" height="73">
<rect y="0.119629" width="72" height="72" fill="#D9D9D9"/>
</mask>
<g mask="url(#mask0_7_1141)">
<path d="M15 23.5429V55.2731C15 55.8116 15.173 56.2541 15.519 56.6006C15.8655 56.9466 16.308 57.1196 16.8465 57.1196H55.1535C55.692 57.1196 56.1345 56.9466 56.481 56.6006C56.827 56.2541 57 55.8116 57 55.2731V23.5429H45V43.9084L36 39.4084L27 43.9084V23.5429H15ZM16.8465 60.1196C15.504 60.1196 14.3605 59.6476 13.416 58.7036C12.472 57.7591 12 56.6156 12 55.2731V22.5791C12 21.9946 12.0932 21.4446 12.2797 20.9291C12.4662 20.4136 12.746 19.9386 13.119 19.5041L17.7922 13.8911C18.2267 13.3061 18.77 12.8646 19.422 12.5666C20.074 12.2686 20.773 12.1196 21.519 12.1196H50.3655C51.1115 12.1196 51.82 12.2686 52.491 12.5666C53.1625 12.8646 53.7155 13.3061 54.15 13.8911L58.881 19.6196C59.254 20.0541 59.5338 20.5386 59.7203 21.0731C59.9068 21.6081 60 22.1679 60 22.7524V55.2731C60 56.6156 59.528 57.7591 58.584 58.7036C57.6395 59.6476 56.496 60.1196 55.1535 60.1196H16.8465ZM16.1423 20.5429H55.8L51.8078 15.7541C51.6153 15.5621 51.394 15.4084 51.144 15.2929C50.894 15.1774 50.6345 15.1196 50.3655 15.1196H21.5767C21.3077 15.1196 21.0483 15.1774 20.7983 15.2929C20.5483 15.4084 20.327 15.5621 20.1345 15.7541L16.1423 20.5429ZM30 23.5429V39.0041L36 36.0041L42 39.0041V23.5429H30Z" fill="#FA3435"/>
</g>
</svg>
