<svg width="72" height="73" viewBox="0 0 72 73" fill="none" xmlns="http://www.w3.org/2000/svg">
<mask id="mask0_7_1180" style="mask-type:alpha" maskUnits="userSpaceOnUse" x="0" y="0" width="72" height="73">
<rect y="0.119629" width="72" height="72" fill="#D9D9D9"/>
</mask>
<g mask="url(#mask0_7_1180)">
<path d="M22.8465 66.1196C21.504 66.1196 20.3605 65.6476 19.416 64.7036C18.472 63.7591 18 62.6156 18 61.2731V10.9661C18 9.58513 18.4625 8.43213 19.3875 7.50713C20.3125 6.58213 21.4655 6.11963 22.8465 6.11963H49.3845C50.727 6.11963 51.8703 6.59163 52.8143 7.53563C53.7588 8.48013 54.231 9.62363 54.231 10.9661V20.6119C54.977 20.6929 55.625 21.0026 56.175 21.5411C56.725 22.0791 57 22.7271 57 23.4851V28.7929C57 29.5504 56.725 30.1984 56.175 30.7369C55.625 31.2754 54.977 31.5851 54.231 31.6661V61.2731C54.231 62.6156 53.7588 63.7591 52.8143 64.7036C51.8703 65.6476 50.727 66.1196 49.3845 66.1196H22.8465ZM22.8465 63.1196H49.3845C49.923 63.1196 50.3652 62.9466 50.7113 62.6006C51.0578 62.2541 51.231 61.8116 51.231 61.2731V10.9661C51.231 10.4276 51.0578 9.98513 50.7113 9.63863C50.3652 9.29263 49.923 9.11963 49.3845 9.11963H22.8465C22.308 9.11963 21.8655 9.29263 21.519 9.63863C21.173 9.98513 21 10.4276 21 10.9661V61.2731C21 61.8116 21.173 62.2541 21.519 62.6006C21.8655 62.9466 22.308 63.1196 22.8465 63.1196ZM33.15 43.0429L45.9232 30.2696L43.8 28.1464L33.15 38.7964L28.95 34.5964L26.8267 36.7196L33.15 43.0429Z" fill="#FA3435"/>
</g>
</svg>
