<svg width="219" height="58" viewBox="0 0 219 58" fill="none" xmlns="http://www.w3.org/2000/svg">
<g clip-path="url(#clip0_86_1077)">
<path d="M54.2783 13.2153C54.4243 13.2143 54.4243 13.2143 54.5732 13.2133C54.7788 13.2123 54.9843 13.2116 55.1899 13.2111C55.4964 13.2101 55.8029 13.2066 56.1094 13.2031C60.0663 13.1794 63.9839 14.2401 66.8758 17.0579C67.8103 18.0145 68.7875 19.2831 69.1755 20.5899C69.1601 20.8638 69.1601 20.8638 69.0641 21.1468C68.8223 21.328 68.8223 21.328 68.4993 21.4862C68.3789 21.5463 68.2584 21.6065 68.1344 21.6685C68.0034 21.7314 67.8724 21.7943 67.7374 21.8591C67.6026 21.9256 67.4679 21.9922 67.3333 22.0591C66.979 22.2343 66.6237 22.407 66.268 22.5793C65.9052 22.7556 65.5435 22.9342 65.1816 23.1125C64.4718 23.4621 63.7607 23.8091 63.0488 24.1545C62.7791 23.886 62.5109 23.6181 62.2526 23.3386C60.6008 21.5854 58.4542 20.5082 56.0376 20.3357C54.4627 20.2988 52.9999 20.5629 51.5753 21.2582C51.4738 21.3049 51.3723 21.3516 51.2677 21.3996C49.2278 22.4094 47.9416 24.2573 47.1948 26.3501C46.5427 28.5697 46.7405 30.941 47.8271 32.9846C48.1529 33.5242 48.5223 34.0367 48.9806 34.4719C49.1246 34.6255 49.1246 34.6255 49.1246 34.8483C49.1904 34.8778 49.2562 34.9074 49.3239 34.9379C49.5766 35.0745 49.741 35.2196 49.9462 35.4192C51.0333 36.3837 52.3117 36.9039 53.6918 37.2989C53.7956 37.3288 53.7956 37.3288 53.9016 37.3593C56.2851 37.8751 58.7988 37.1472 60.814 35.8995C61.2614 35.6112 61.6302 35.3064 62.0463 34.9597C62.0831 34.1877 62.1198 33.4157 62.1577 32.6204C59.3272 32.6204 56.4967 32.6204 53.5804 32.6204C53.5804 30.5618 53.5804 28.5033 53.5804 26.3823C58.7268 26.3823 63.8732 26.3823 69.1755 26.3823C69.2031 28.1836 69.2306 29.9848 69.259 31.8406C69.2773 32.6886 69.2773 32.6886 69.2959 33.5537C69.302 34.2528 69.302 34.2528 69.3031 34.5817C69.3051 34.8078 69.3098 35.0339 69.3166 35.2599C69.3604 36.7812 69.2286 37.7723 68.1925 38.9304C68.0747 39.055 67.9567 39.1795 67.8388 39.304C67.6644 39.5018 67.4918 39.7011 67.3192 39.9005C66.7032 40.5975 66.0197 41.1952 65.2767 41.7547C65.2185 41.7996 65.1602 41.8445 65.1002 41.8908C62.3502 44.0034 59.1054 45.0102 55.6551 45.0129C55.5271 45.013 55.5271 45.013 55.3966 45.0132C54.1638 45.0114 52.9958 44.9692 51.7981 44.6509C51.7215 44.6318 51.645 44.6127 51.5661 44.593C50.3891 44.2968 49.3093 43.8731 48.2335 43.3142C48.1243 43.2582 48.1243 43.2582 48.0129 43.201C46.8729 42.6101 45.8712 41.9146 44.8917 41.0863C44.7952 41.0056 44.6987 40.9249 44.5993 40.8418C44.0504 40.369 43.5657 39.8661 43.1094 39.304C42.9804 39.1459 42.9804 39.1459 42.8487 38.9846C40.5189 36.0749 39.2698 32.6979 39.2802 28.9653C39.2803 28.8797 39.2804 28.794 39.2805 28.7058C39.2965 24.4492 40.6815 20.4541 43.6663 17.3594C46.4325 14.66 50.4419 13.2353 54.2783 13.2153Z" fill="white"/>
<path d="M93.1548 13.2153C93.3007 13.2143 93.3007 13.2143 93.4496 13.2133C93.6552 13.2123 93.8608 13.2116 94.0664 13.2111C94.3729 13.2101 94.6793 13.2066 94.9858 13.2031C98.9428 13.1794 102.86 14.2401 105.752 17.0579C106.687 18.0145 107.664 19.2831 108.052 20.5899C108.037 20.8638 108.037 20.8638 107.941 21.1468C107.699 21.328 107.699 21.328 107.376 21.4862C107.255 21.5463 107.135 21.6065 107.011 21.6685C106.88 21.7314 106.749 21.7943 106.614 21.8591C106.479 21.9256 106.344 21.9922 106.21 22.0591C105.856 22.2343 105.5 22.407 105.144 22.5793C104.782 22.7556 104.42 22.9342 104.058 23.1125C103.348 23.4621 102.637 23.8091 101.925 24.1545C101.651 23.8808 101.377 23.6069 101.109 23.3268C99.4647 21.625 97.3394 20.4785 94.9497 20.3445C93.3474 20.3248 91.908 20.5474 90.4518 21.2582C90.3502 21.3049 90.2487 21.3516 90.1441 21.3996C88.1042 22.4094 86.8181 24.2573 86.0713 26.3501C85.419 28.5703 85.6173 30.9414 86.704 32.9855C86.9869 33.454 87.3153 33.8731 87.6669 34.2913C87.7338 34.3803 87.8007 34.4693 87.8697 34.5611C88.8086 35.6717 90.1306 36.4099 91.4543 36.9647C91.5749 37.0154 91.6955 37.0661 91.8198 37.1183C93.8949 37.8411 96.3677 37.5168 98.3468 36.6514C99.2912 36.1834 100.113 35.6343 100.923 34.9597C100.96 34.1877 100.996 33.4157 101.034 32.6204C98.2036 32.6204 95.3731 32.6204 92.4568 32.6204C92.4568 30.5618 92.4568 28.5033 92.4568 26.3823C97.6032 26.3823 102.75 26.3823 108.052 26.3823C108.073 28.1928 108.093 30.0032 108.115 31.8685C108.124 32.4379 108.133 33.0072 108.142 33.5939C108.147 34.2949 108.147 34.2949 108.148 34.6242C108.149 34.8518 108.153 35.0794 108.158 35.3069C108.207 37.626 108.207 37.626 107.299 38.614C107.217 38.6947 107.134 38.7753 107.049 38.8584C106.932 39.0011 106.816 39.145 106.702 39.291C104.06 42.434 100.445 44.4753 96.3556 44.9851C95.7479 45.0119 95.1398 45.0125 94.5316 45.0129C94.4036 45.013 94.4036 45.013 94.2731 45.0132C93.0402 45.0114 91.8722 44.9692 90.6745 44.6509C90.598 44.6318 90.5214 44.6127 90.4426 44.593C89.2656 44.2968 88.1857 43.8731 87.1099 43.3142C87.0007 43.2582 87.0007 43.2582 86.8893 43.201C85.7494 42.6101 84.7476 41.9146 83.7681 41.0863C83.6716 41.0056 83.5751 40.9249 83.4757 40.8418C82.9269 40.369 82.4422 39.8661 81.9858 39.304C81.8568 39.1459 81.8568 39.1459 81.7252 38.9846C79.3953 36.0749 78.1463 32.6979 78.1567 28.9653C78.1568 28.8797 78.1569 28.794 78.157 28.7058C78.1729 24.4492 79.5579 20.4541 82.5428 17.3594C85.3089 14.66 89.3183 13.2353 93.1548 13.2153Z" fill="white"/>
<path d="M192.266 13.2378C194.729 13.2378 197.191 13.2378 199.729 13.2378C199.766 16.9505 199.803 20.6633 199.84 24.4886C200.245 23.9739 200.649 23.4593 201.066 22.929C201.324 22.6122 201.584 22.2963 201.845 21.9822C202.371 21.3484 202.886 20.7086 203.392 20.0594C203.84 19.4855 204.3 18.9213 204.76 18.3573C205.147 17.8825 205.528 17.4038 205.904 16.9207C206.432 16.2445 206.975 15.5818 207.523 14.9224C207.584 14.8483 207.646 14.7741 207.709 14.6977C207.799 14.5937 207.799 14.5937 207.891 14.4877C208.09 14.2486 208.09 14.2486 208.215 13.9798C208.4 13.6502 208.556 13.4619 208.863 13.2378C209.579 13.0936 210.284 13.121 211.011 13.1399C211.222 13.1418 211.433 13.1432 211.644 13.1442C212.198 13.148 212.752 13.1578 213.306 13.169C213.872 13.1792 214.438 13.1838 215.004 13.1888C216.113 13.1996 217.223 13.2167 218.332 13.2378C218.176 13.561 218.022 13.801 217.773 14.0611C217.708 14.1305 217.642 14.1999 217.574 14.2714C217.505 14.3438 217.436 14.4163 217.364 14.491C217.221 14.6416 217.079 14.7923 216.937 14.9431C216.869 15.0147 216.801 15.0863 216.731 15.1601C216.464 15.4457 216.207 15.7396 215.951 16.0361C215.479 16.5807 214.991 17.1116 214.508 17.6465C214.13 18.0659 213.752 18.4858 213.382 18.9119C212.975 19.3793 212.557 19.8361 212.139 20.2939C211.917 20.5389 211.698 20.7858 211.481 21.0354C211.077 21.5007 210.661 21.9549 210.245 22.4104C210.023 22.6554 209.804 22.9023 209.587 23.1518C209.183 23.6172 208.767 24.0714 208.352 24.5268C208.067 24.8409 207.788 25.1593 207.51 25.4793C207.163 25.8741 206.806 26.2607 206.45 26.6481C206.204 26.9235 205.972 27.2057 205.744 27.4962C205.933 27.9328 206.222 28.284 206.517 28.6519C206.629 28.7923 206.74 28.9327 206.852 29.0731C206.909 29.1445 206.965 29.2158 207.024 29.2894C207.182 29.4881 207.339 29.6876 207.495 29.8877C208.097 30.6588 208.709 31.4211 209.327 32.179C209.767 32.7189 210.199 33.2645 210.627 33.8134C211.017 34.3117 211.415 34.8035 211.815 35.2937C212.317 35.909 212.812 36.5293 213.301 37.1552C213.691 37.6535 214.089 38.1453 214.489 38.6356C215.098 39.3821 215.696 40.1361 216.289 40.8954C216.49 41.1522 216.691 41.4088 216.892 41.6652C216.992 41.7935 217.093 41.9219 217.193 42.0504C217.471 42.4046 217.752 42.7555 218.038 43.1035C218.099 43.1793 218.161 43.2551 218.225 43.3333C218.345 43.4802 218.466 43.6267 218.587 43.7725C219 44.2793 219 44.2793 219 44.6508C217.849 44.6949 216.698 44.7284 215.546 44.7489C215.011 44.7588 214.476 44.7721 213.941 44.7937C210.191 44.9411 210.191 44.9411 209.394 44.2549C209.059 43.8683 208.832 43.4514 208.631 42.9828C208.496 42.6831 208.308 42.4568 208.09 42.2128C208.001 42.1058 208.001 42.1058 207.91 41.9967C207.823 41.8941 207.823 41.8941 207.735 41.7894C207.212 41.16 206.698 40.5249 206.195 39.8795C205.825 39.4063 205.452 38.9366 205.076 38.4685C204.648 37.935 204.223 37.3991 203.802 36.8602C203.031 35.8758 202.245 34.9037 201.445 33.9436C201.356 33.8377 201.268 33.7319 201.177 33.6228C200.148 34.6549 199.672 35.4387 199.672 36.9097C199.676 37.1077 199.681 37.3057 199.685 37.5038C199.685 37.7112 199.685 37.9186 199.684 38.126C199.682 38.6662 199.689 39.2059 199.697 39.7461C199.705 40.3971 199.703 41.0482 199.703 41.6993C199.704 42.6834 199.718 43.6666 199.729 44.6508C197.266 44.6508 194.803 44.6508 192.266 44.6508C192.266 34.2845 192.266 23.9182 192.266 13.2378Z" fill="white"/>
<path d="M116.963 13.2379C119.812 13.2218 122.661 13.2057 125.596 13.1892C126.493 13.1821 127.39 13.175 128.314 13.1676C129.416 13.1641 129.416 13.1641 129.933 13.1635C130.292 13.1628 130.65 13.1598 131.008 13.1556C131.468 13.1502 131.927 13.1486 132.386 13.1497C132.553 13.1495 132.72 13.148 132.888 13.1449C135.269 13.1036 137.325 14.4359 139.019 16.0227C140.854 17.805 141.799 20.2819 141.837 22.8094C141.853 25.954 141.154 28.4446 138.918 30.7302C137.733 31.8916 136.3 32.6471 134.786 33.2888C134.696 33.3277 134.605 33.3666 134.512 33.4067C133.574 33.6566 132.547 33.5756 131.582 33.5834C131.305 33.5866 131.027 33.5919 130.75 33.5994C130.349 33.6103 129.949 33.6145 129.547 33.6173C129.424 33.6218 129.3 33.6262 129.173 33.6308C128.334 33.6262 128.334 33.6262 127.997 33.3041C127.822 33.0465 127.681 32.789 127.546 32.509C127.477 32.3954 127.408 32.2817 127.338 32.1647C127.28 32.0628 127.222 31.9609 127.162 31.8559C127.095 31.7385 127.028 31.6211 126.958 31.5001C126.89 31.3805 126.822 31.2608 126.752 31.1375C126.033 29.8747 125.286 28.6318 124.538 27.3849C124.501 33.0827 124.465 38.7805 124.427 44.6509C121.964 44.6509 119.501 44.6509 116.963 44.6509C116.963 34.2846 116.963 23.9183 116.963 13.2379ZM124.427 19.9215C124.427 22.1639 124.427 24.4062 124.427 26.7165C125.743 26.736 125.743 26.736 127.06 26.7492C127.597 26.7531 128.135 26.7578 128.673 26.767C129.107 26.7743 129.541 26.7782 129.975 26.7799C130.14 26.7812 130.304 26.7836 130.469 26.7872C131.809 26.8156 132.708 26.5333 133.714 25.6304C134.497 24.796 134.83 23.8413 134.817 22.7142C134.749 21.9513 134.353 21.4052 133.806 20.8875C133.022 20.2921 132.149 19.907 131.167 19.9089C131.094 19.9089 131.021 19.9088 130.946 19.9088C130.706 19.9089 130.465 19.9098 130.225 19.9106C130.058 19.9108 129.891 19.911 129.724 19.9111C129.285 19.9115 128.846 19.9126 128.407 19.9139C127.881 19.9152 127.354 19.9157 126.827 19.9164C126.027 19.9174 125.227 19.9196 124.427 19.9215Z" fill="white"/>
<path d="M163.312 13.224C163.433 13.2246 163.433 13.2246 163.557 13.2252C163.684 13.2252 163.684 13.2252 163.813 13.2252C164.095 13.2253 164.376 13.2261 164.658 13.227C164.852 13.2272 165.047 13.2274 165.242 13.2275C165.755 13.2279 166.268 13.229 166.782 13.2302C167.305 13.2314 167.829 13.2319 168.352 13.2324C169.38 13.2336 170.407 13.2355 171.435 13.2379C172.513 16.005 173.585 18.7739 174.638 21.5506C174.704 21.7257 174.704 21.7257 174.772 21.9044C174.816 22.0209 174.86 22.1375 174.906 22.2576C175.43 23.6408 175.957 25.0229 176.49 26.4032C177.155 28.1284 177.815 29.8555 178.474 31.583C179.215 33.5268 179.959 35.4696 180.706 37.4111C180.846 37.775 180.986 38.1389 181.126 38.5028C181.502 39.4811 181.879 40.4594 182.257 41.437C182.396 41.7969 182.535 42.157 182.674 42.5171C182.737 42.6798 182.8 42.8424 182.863 43.0049C182.948 43.2228 183.032 43.441 183.116 43.6592C183.162 43.7793 183.209 43.8993 183.257 44.023C183.354 44.3167 183.354 44.3167 183.354 44.6509C180.524 44.6509 177.693 44.6509 174.777 44.6509C174.486 43.9239 174.209 43.2048 173.96 42.4644C173.925 42.3622 173.89 42.2599 173.855 42.1546C173.739 41.8149 173.625 41.4749 173.51 41.135C173.427 40.8901 173.344 40.6453 173.261 40.4004C173.034 39.7313 172.808 39.0621 172.581 38.3929C172.361 37.7395 172.139 37.0862 171.918 36.4329C171.532 35.2914 171.145 34.1499 170.759 33.0084C170.16 31.2373 169.56 29.4661 168.96 27.6953C168.871 27.433 168.782 27.1707 168.694 26.9084C168.168 25.3561 167.636 23.8064 167.091 22.2608C166.641 23.3158 166.289 24.405 165.925 25.4916C165.855 25.7014 165.784 25.9111 165.714 26.1209C165.528 26.6741 165.342 27.2274 165.156 27.7808C164.865 28.6503 164.572 29.5197 164.28 30.3891C164.207 30.6057 164.134 30.8224 164.061 31.039C163.478 32.775 162.888 34.5088 162.296 36.2416C161.898 37.4043 161.502 38.5676 161.108 39.7317C161.06 39.8751 161.011 40.0185 160.963 40.1619C160.772 40.726 160.581 41.2901 160.39 41.8542C160.293 42.1432 160.195 42.4321 160.097 42.721C160.008 42.9866 159.918 43.2523 159.828 43.518C159.789 43.6348 159.749 43.7516 159.708 43.872C159.674 43.9745 159.639 44.077 159.603 44.1826C159.516 44.4281 159.516 44.4281 159.405 44.6509C156.684 44.6509 153.964 44.6509 151.161 44.6509C151.242 44.1681 151.319 43.8135 151.485 43.3681C151.529 43.2491 151.574 43.1301 151.619 43.0074C151.668 42.8789 151.716 42.7504 151.766 42.618C151.843 42.4094 151.921 42.2009 151.999 41.9924C152.082 41.7698 152.165 41.5473 152.249 41.3248C152.424 40.8579 152.598 40.3907 152.772 39.9234C152.981 39.3626 153.19 38.8018 153.4 38.2411C153.881 36.9547 154.358 35.667 154.834 34.379C155.062 33.7637 155.29 33.1486 155.517 32.5334C155.608 32.2884 155.699 32.0434 155.79 31.7984C156.066 31.0524 156.342 30.3065 156.618 29.5605C156.664 29.4362 156.71 29.3119 156.758 29.1839C156.99 28.5565 157.223 27.9292 157.455 27.3019C157.921 26.0447 158.386 24.7874 158.851 23.5301C159.359 22.1585 159.867 20.7871 160.376 19.4158C160.524 19.016 160.672 18.616 160.82 18.2161C161.069 17.5454 161.317 16.8748 161.567 16.2043C161.661 15.9499 161.755 15.6956 161.85 15.4412C161.979 15.0911 162.109 14.7413 162.239 14.3914C162.297 14.2346 162.297 14.2346 162.356 14.0745C162.392 13.98 162.427 13.8854 162.463 13.788C162.494 13.7054 162.525 13.6229 162.556 13.5379C162.716 13.154 162.923 13.2248 163.312 13.224Z" fill="white"/>
<path d="M12.2615 13.224C12.3828 13.2246 12.3828 13.2246 12.5065 13.2252C12.6337 13.2252 12.6337 13.2252 12.7634 13.2252C13.0449 13.2253 13.3263 13.2261 13.6078 13.227C13.8024 13.2272 13.9971 13.2274 14.1917 13.2275C14.7051 13.2279 15.2184 13.229 15.7317 13.2302C16.2551 13.2314 16.7785 13.2319 17.3019 13.2324C18.3296 13.2336 19.3573 13.2355 20.385 13.2379C21.7849 16.8351 23.1699 20.4377 24.5442 24.0448C25.0348 25.3323 25.526 26.6197 26.0173 27.907C26.0657 28.0339 26.1141 28.1607 26.164 28.2914C26.9162 30.2622 27.6723 32.2315 28.4304 34.2C29.2843 36.4177 30.1329 38.6373 30.9798 40.8576C31.0502 41.0422 31.0502 41.0422 31.122 41.2305C31.212 41.4664 31.3019 41.7024 31.3917 41.9384C31.5714 42.4103 31.7516 42.8819 31.9369 43.3517C31.9882 43.4819 32.0394 43.6121 32.0922 43.7463C32.1343 43.8516 32.1764 43.9569 32.2197 44.0655C32.3041 44.3167 32.3041 44.3167 32.3041 44.6509C29.4736 44.6509 26.6431 44.6509 23.7268 44.6509C23.2255 43.3978 23.2255 43.3978 23.0735 42.9475C23.0386 42.8447 23.0037 42.7419 22.9678 42.636C22.9312 42.5272 22.8946 42.4185 22.857 42.3064C22.797 42.1294 22.797 42.1294 22.7359 41.9488C22.6041 41.5593 22.4727 41.1696 22.3413 40.78C22.2477 40.503 22.154 40.226 22.0603 39.949C21.8626 39.3647 21.6651 38.7803 21.4678 38.1958C21.1695 37.3128 20.8707 36.4299 20.5717 35.5471C20.5351 35.439 20.5351 35.439 20.4977 35.3288C20.3747 34.9655 20.2516 34.6023 20.1286 34.239C20.0056 33.8762 19.8828 33.5134 19.7599 33.1505C19.1432 31.3298 18.5263 29.5091 17.9079 27.6889C17.8301 27.4596 17.7522 27.2303 17.6744 27.001C17.1372 25.4183 16.5917 23.8387 16.0406 22.2608C15.5908 23.3158 15.2393 24.405 14.8753 25.4916C14.8048 25.7014 14.7343 25.9111 14.6637 26.1209C14.4776 26.6741 14.2919 27.2274 14.1062 27.7808C13.8145 28.6503 13.5222 29.5197 13.2299 30.3891C13.157 30.6057 13.0842 30.8224 13.0114 31.039C12.4278 32.775 11.8384 34.5088 11.2456 36.2416C10.8478 37.4043 10.4517 38.5676 10.058 39.7317C10.0095 39.8751 9.96098 40.0185 9.91246 40.1619C9.72168 40.726 9.53097 41.2901 9.34044 41.8542C9.24285 42.1432 9.14518 42.4321 9.04742 42.721C8.95753 42.9866 8.86776 43.2523 8.77815 43.518C8.73859 43.6348 8.69903 43.7516 8.65827 43.872C8.62364 43.9745 8.58901 44.077 8.55334 44.1826C8.46585 44.4281 8.46585 44.4281 8.35446 44.6509C5.63423 44.6509 2.91399 44.6509 0.111328 44.6509C0.191789 44.1681 0.268641 43.8135 0.435202 43.3681C0.479385 43.2491 0.523568 43.1301 0.56909 43.0074C0.61748 42.8789 0.66587 42.7504 0.715726 42.618C0.793398 42.4094 0.87107 42.2009 0.948741 41.9924C1.03179 41.7698 1.11513 41.5473 1.19857 41.3248C1.37368 40.8579 1.54796 40.3907 1.7221 39.9234C1.93119 39.3626 2.14044 38.8018 2.34994 38.2411C2.83056 36.9547 3.30771 35.667 3.78412 34.379C4.01174 33.7637 4.2396 33.1486 4.46743 32.5334C4.55814 32.2884 4.64885 32.0434 4.73955 31.7984C5.01576 31.0524 5.29203 30.3065 5.56831 29.5605C5.61435 29.4362 5.66039 29.3119 5.70782 29.1839C5.94017 28.5565 6.17254 27.9292 6.40491 27.3019C6.87058 26.0447 7.33612 24.7874 7.80141 23.5301C8.30899 22.1585 8.81708 20.7871 9.3255 19.4158C9.47374 19.016 9.6219 18.616 9.77005 18.2161C10.0186 17.5454 10.2674 16.8748 10.5165 16.2043C10.611 15.9499 10.7053 15.6956 10.7995 15.4412C10.9292 15.0911 11.0592 14.7413 11.1893 14.3914C11.2473 14.2346 11.2473 14.2346 11.3064 14.0745C11.3417 13.98 11.377 13.8854 11.4133 13.788C11.4439 13.7054 11.4746 13.6229 11.5061 13.5379C11.6664 13.154 11.873 13.2248 12.2615 13.224Z" fill="white"/>
<path d="M129.774 36.8532C130.829 36.8118 131.884 36.7802 132.94 36.7609C133.431 36.7516 133.921 36.739 134.411 36.7188C137.549 36.5924 137.549 36.5924 138.29 37.0056C138.7 37.3953 138.878 37.8554 139.044 38.3872C139.187 38.7979 139.423 39.1457 139.655 39.511C139.742 39.656 139.828 39.8013 139.914 39.9469C139.978 40.0557 139.978 40.0557 140.043 40.1666C140.087 40.2403 140.13 40.314 140.175 40.39C140.359 40.7007 140.542 41.0114 140.726 41.322C140.771 41.3975 140.816 41.473 140.862 41.5507C141.132 42.008 141.405 42.4637 141.681 42.9181C141.744 43.0219 141.807 43.1258 141.872 43.2328C141.986 43.4212 142.101 43.6094 142.216 43.7974C142.584 44.4035 142.584 44.4035 142.584 44.6508C139.717 44.6508 136.849 44.6508 133.895 44.6508C133.344 43.6215 132.792 42.5922 132.224 41.5317C131.666 40.5429 131.666 40.5429 131.106 39.5554C130.792 38.9997 130.485 38.4402 130.184 37.8766C130.121 37.7587 130.121 37.7587 130.056 37.6383C129.774 37.103 129.774 37.103 129.774 36.8532Z" fill="white"/>
<path d="M162.412 36.8532C165.5 36.8532 168.588 36.8532 171.769 36.8532C171.617 37.2327 171.499 37.5095 171.287 37.8414C171.235 37.9224 171.184 38.0035 171.131 38.087C171.047 38.2172 171.047 38.2172 170.961 38.3501C170.873 38.4884 170.873 38.4884 170.783 38.6294C170.657 38.827 170.531 39.0243 170.405 39.2216C170.211 39.5247 170.018 39.8284 169.825 40.1324C168.961 41.4964 168.085 42.8531 167.202 44.2052C166.825 44.0795 166.795 44.0297 166.598 43.7061C166.546 43.6236 166.495 43.5412 166.442 43.4562C166.388 43.3656 166.333 43.2751 166.276 43.1818C166.155 42.9871 166.035 42.7924 165.914 42.5978C165.851 42.4958 165.789 42.3937 165.724 42.2885C165.409 41.7803 165.087 41.2768 164.765 40.7729C164.635 40.5685 164.505 40.3641 164.375 40.1598C164.093 39.7171 163.81 39.2755 163.526 38.8344C163.454 38.7218 163.381 38.6093 163.307 38.4934C163.167 38.2761 163.028 38.0591 162.887 37.8423C162.794 37.6965 162.794 37.6965 162.698 37.5477C162.643 37.4618 162.587 37.3759 162.53 37.2874C162.412 37.076 162.412 37.076 162.412 36.8532Z" fill="white"/>
<path d="M11.3622 36.8532C14.45 36.8532 17.5378 36.8532 20.7193 36.8532C20.5675 37.2327 20.4496 37.5095 20.2371 37.8414C20.1856 37.9224 20.134 38.0035 20.0809 38.087C19.9971 38.2172 19.9971 38.2172 19.9116 38.3501C19.8234 38.4884 19.8234 38.4884 19.7334 38.6294C19.6074 38.827 19.4812 39.0243 19.3548 39.2216C19.161 39.5247 18.9681 39.8284 18.7755 40.1324C17.9108 41.4964 17.0353 42.8531 16.1521 44.2052C15.775 44.0795 15.7456 44.0297 15.5477 43.7061C15.4965 43.6236 15.4454 43.5412 15.3926 43.4562C15.3377 43.3656 15.2828 43.2751 15.2262 43.1818C15.1057 42.9871 14.9852 42.7924 14.8646 42.5978C14.8017 42.4958 14.7388 42.3937 14.674 42.2885C14.3592 41.7803 14.0371 41.2768 13.7154 40.7729C13.5854 40.5685 13.4555 40.3641 13.3255 40.1598C13.0436 39.7171 12.7603 39.2755 12.4761 38.8344C12.4039 38.7218 12.3316 38.6093 12.2572 38.4934C12.1177 38.2761 11.9778 38.0591 11.8374 37.8423C11.7439 37.6965 11.7439 37.6965 11.6485 37.5477C11.5931 37.4618 11.5377 37.3759 11.4806 37.2874C11.3622 37.076 11.3622 37.076 11.3622 36.8532Z" fill="white"/>
</g>
<defs>
<clipPath id="clip0_86_1077">
<rect width="219" height="57.8133" fill="white" transform="translate(0 0.093338)"/>
</clipPath>
</defs>
</svg>
